<svg xmlns="http://www.w3.org/2000/svg" viewBox="0 0 200 200" width="200" height="200" role="img" aria-labelledby="title-sales">
  <title id="title-sales">Prompts de IA para ventas</title>
  <defs>
    <linearGradient id="bg-sales" x1="0" y1="0" x2="1" y2="1">
      <stop offset="0%" stop-color="#EEF2FF"/>
      <stop offset="100%" stop-color="#E0D9FB"/>
    </linearGradient>
  </defs>
  <circle cx="100" cy="100" r="92" fill="url(#bg-sales)"/>
  <path d="M44 140 L44 116 L72 116 L72 128" fill="none" stroke="#4C3AA8" stroke-width="7" stroke-linejoin="round" stroke-linecap="round"/>
  <path d="M50 122 C58 108 68 116 62 128 C56 138 44 132 44 140" fill="none" stroke="#4C3AA8" stroke-width="7" stroke-linecap="round" stroke-linejoin="round"/>
  <path d="M156 140 L156 116 L128 116 L128 128" fill="none" stroke="#8B7FD1" stroke-width="7" stroke-linejoin="round" stroke-linecap="round"/>
  <path d="M150 122 C142 108 132 116 138 128 C144 138 156 132 156 140" fill="none" stroke="#8B7FD1" stroke-width="7" stroke-linecap="round" stroke-linejoin="round"/>
  <path d="M60 76 L88 60 L112 60 L140 76" fill="none" stroke="#4C3AA8" stroke-width="7" stroke-linecap="round"/>
  <path d="M150 40 L156 54 L170 60 L156 66 L150 80 L144 66 L130 60 L144 54 Z" fill="#FBBF24"/>
</svg>
