<svg xmlns="http://www.w3.org/2000/svg" viewBox="0 0 200 200" width="200" height="200" role="img" aria-labelledby="title-github-copilot">
  <title id="title-github-copilot">GitHub Copilot: copiloto de codigo con IA</title>
  <defs>
    <linearGradient id="bg-github-copilot" x1="0" y1="0" x2="1" y2="1">
      <stop offset="0%" stop-color="#EEF2FF"/>
      <stop offset="100%" stop-color="#E0D9FB"/>
    </linearGradient>
  </defs>
  <circle cx="100" cy="100" r="92" fill="url(#bg-github-copilot)"/>

  <rect x="38" y="48" width="124" height="92" rx="10" fill="#FFFFFF" stroke="#4C3AA8" stroke-width="7"/>
  <line x1="38" y1="68" x2="162" y2="68" stroke="#4C3AA8" stroke-width="4"/>
  <circle cx="52" cy="58" r="4" fill="#8B7FD1"/>
  <circle cx="64" cy="58" r="4" fill="#8B7FD1"/>
  <line x1="52" y1="86" x2="110" y2="86" stroke="#8B7FD1" stroke-width="6" stroke-linecap="round"/>
  <line x1="52" y1="102" x2="90" y2="102" stroke="#8B7FD1" stroke-width="6" stroke-linecap="round"/>
  <line x1="52" y1="118" x2="126" y2="118" stroke="#8B7FD1" stroke-width="6" stroke-linecap="round"/>
  <rect x="112" y="96" width="20" height="16" rx="6" fill="#4C3AA8"/>
  <rect x="116" y="90" width="4" height="8" rx="2" fill="#4C3AA8"/>
  <rect x="124" y="90" width="4" height="8" rx="2" fill="#4C3AA8"/>
  <circle cx="118" cy="103" r="2" fill="#FFFFFF"/>
  <circle cx="126" cy="103" r="2" fill="#FFFFFF"/>
  <path d="M150 40 L156 54 L170 60 L156 66 L150 80 L144 66 L130 60 L144 54 Z" fill="#FBBF24"/>
</svg>
