<svg xmlns="http://www.w3.org/2000/svg" viewBox="0 0 200 200" width="200" height="200" role="img" aria-labelledby="title-notion-ai">
  <title id="title-notion-ai">Notion AI: inteligencia artificial en el espacio de trabajo</title>
  <defs>
    <linearGradient id="bg-notion-ai" x1="0" y1="0" x2="1" y2="1">
      <stop offset="0%" stop-color="#EEF2FF"/>
      <stop offset="100%" stop-color="#E0D9FB"/>
    </linearGradient>
  </defs>
  <circle cx="100" cy="100" r="92" fill="url(#bg-notion-ai)"/>

  <rect x="50" y="42" width="88" height="116" rx="8" fill="#FFFFFF" stroke="#4C3AA8" stroke-width="7"/>
  <line x1="64" y1="66" x2="112" y2="66" stroke="#4C3AA8" stroke-width="6" stroke-linecap="round"/>
  <path d="M64 90 L70 96 L82 82" fill="none" stroke="#8B7FD1" stroke-width="6" stroke-linecap="round" stroke-linejoin="round"/>
  <line x1="92" y1="88" x2="124" y2="88" stroke="#8B7FD1" stroke-width="5" stroke-linecap="round"/>
  <path d="M64 118 L70 124 L82 110" fill="none" stroke="#8B7FD1" stroke-width="6" stroke-linecap="round" stroke-linejoin="round"/>
  <line x1="92" y1="116" x2="118" y2="116" stroke="#8B7FD1" stroke-width="5" stroke-linecap="round"/>
  <path d="M136 130 L142 144 L156 150 L142 156 L136 170 L130 156 L116 150 L130 144 Z" fill="#4C3AA8"/>
  <path d="M150 40 L156 54 L170 60 L156 66 L150 80 L144 66 L130 60 L144 54 Z" fill="#FBBF24"/>
</svg>
