<svg xmlns="http://www.w3.org/2000/svg" viewBox="0 0 200 200" width="200" height="200" role="img" aria-labelledby="title-otter-ai">
  <title id="title-otter-ai">Otter.ai: transcripcion y resumen de reuniones en tiempo real</title>
  <defs>
    <linearGradient id="bg-otter-ai" x1="0" y1="0" x2="1" y2="1">
      <stop offset="0%" stop-color="#EEF2FF"/>
      <stop offset="100%" stop-color="#E0D9FB"/>
    </linearGradient>
  </defs>
  <circle cx="100" cy="100" r="92" fill="url(#bg-otter-ai)"/>

  <path d="M42 82 L42 118 M54 68 L54 132 M66 88 L66 112 M78 74 L78 126 M90 92 L90 108" stroke="#4C3AA8" stroke-width="7" stroke-linecap="round"/>
  <path d="M100 100 L118 100" stroke="#8B7FD1" stroke-width="5" stroke-linecap="round" stroke-dasharray="1 10"/>
  <line x1="124" y1="80" x2="164" y2="80" stroke="#8B7FD1" stroke-width="6" stroke-linecap="round"/>
  <line x1="124" y1="98" x2="164" y2="98" stroke="#8B7FD1" stroke-width="6" stroke-linecap="round"/>
  <line x1="124" y1="116" x2="150" y2="116" stroke="#8B7FD1" stroke-width="6" stroke-linecap="round"/>
  <circle cx="158" cy="60" r="7" fill="none" stroke="#4C3AA8" stroke-width="3"/>
  <circle cx="158" cy="60" r="3" fill="#4C3AA8"/>
  <path d="M150 40 L156 54 L170 60 L156 66 L150 80 L144 66 L130 60 L144 54 Z" fill="#FBBF24"/>
</svg>
